<svg id="Layer_1" data-name="Layer 1" xmlns="http://www.w3.org/2000/svg" viewBox="0 0 282.08 227.82"><defs><style>.cls-1{fill:#ffce06;fill-rule:evenodd;}</style></defs><title>Lotus logo</title><path class="cls-1" d="M142.35,227.82c-17.15-24.58-47.13-29.06-51.42-51.41-4.28-20.14,23.58-35.81,49.28-38,23.56,0,47.14,15.65,47.14,35.79,0,22.35-30,26.83-45,53.65h0Z"/><path class="cls-1" d="M170.64,51.12c3-17,46-40.26,47.5-40.26-8.91,18.6,17.81,75.89-4.45,111.51-10.38,15.48-34.13,29.43-59.37,13.93a41,41,0,0,0,22.27-20.14c4.46-7.73,5.93-15.47,7.42-26.32,0-17-5.93-27.87-13.38-38.72h0Z"/><path class="cls-1" d="M143.94,6.23c-14.83,38.69-41.56,46.45-44.51,79-3,29.45,19.27,49.56,40.06,51.11s41.56-17,41.56-46.46c1.47-35.6-25.22-41.82-37.11-83.6h0Z"/><path class="cls-1" d="M90.53,24.81C92,18.61,106.85,7.78,106.85,0c3,10.86,19.29,17,20.78,31-5.93,6.18-11.88,12.37-16.34,18.59h0c-1.47-7.75-10.38-17-20.76-24.78h0Z"/><path class="cls-1" d="M56.4,86.75a74.48,74.48,0,0,0,8.89,35.62c8.92,12.38,25.24,23.23,46,20.13h0c-56.38,54.2-77.17-7.74-111.29-31C20.77,108.43,54.91,65,56.4,86.75h0Z"/><path class="cls-1" d="M225.67,86.75c0,12.39-3,26.32-8.91,35.62-8.91,13.93-25.22,24.78-46,20.13V144c56.4,54.2,77.18-7.74,111.32-32.53C261.28,110,227.15,65,225.67,86.75h0Z"/><path class="cls-1" d="M189.95,24.81c0-6.2-16.31-17-16.31-24.81-3,10.86-16.34,17-19.31,27.9,4.47,9.28,10.4,15.46,14.86,21.68h0c1.45-7.75,10.38-17,20.76-24.78h0Z"/><path class="cls-1" d="M111.73,51.12c-3-17-46-40.26-47.48-40.26,8.92,18.6-17.82,75.89,4.45,111.51,10.4,15.48,34.13,29.43,59.37,13.93a41,41,0,0,1-22.27-20.14c-4.45-7.73-5.93-15.47-7.42-26.32,0-17,5.95-27.87,13.35-38.72h0Z"/></svg>