<svg id="Layer_1" data-name="Layer 1" xmlns="http://www.w3.org/2000/svg" viewBox="0 0 425.2 425.2"><defs><style>.cls-1{fill:none;stroke:#ffce06;stroke-miterlimit:10;stroke-width:10px;}.cls-2{fill:#ffce06;}.cls-3,.cls-4{fill:#fff;}.cls-4{font-size:40px;font-family:UTM Facebook;}</style></defs><title>Tu Tan pagoda logo</title><circle class="cls-1" cx="212.6" cy="202.6" r="162.5"/><circle class="cls-2" cx="212.6" cy="202.6" r="150.79"/><rect class="cls-2" x="65.38" y="296.39" width="298.37" height="88.71"/><path class="cls-3" d="M212.85,64.85s-23.5,56-52.5,65c0,0,24,9.9,52.5,9v-74Z"/><path class="cls-3" d="M212.35,64.85s23.5,56,52.5,65c0,0-24,9.9-52.5,9v-74Z"/><path class="cls-3" d="M101.6,124.35s36,59,47.5,65v-15.5h63.5v-21.5S177.1,154.35,101.6,124.35Z"/><path class="cls-3" d="M323.6,124.35s-36,59-47.5,65v-15.5H212.6v-21.5S248.1,154.35,323.6,124.35Z"/><path class="cls-3" d="M75.85,180.27S120.2,253,134.37,260.35v-19.1H212.6V214.77S168.86,217.23,75.85,180.27Z"/><path class="cls-3" d="M349.35,180.27S305,253,290.83,260.35v-19.1H212.6V214.77S256.33,217.23,349.35,180.27Z"/><text class="cls-4" transform="translate(75.24 354.8)">CHÙA TỪ TÂN</text></svg>